<?xml version="1.0" encoding="utf-8"?>
<!-- Generator: Adobe Illustrator 25.0.1, SVG Export Plug-In . SVG Version: 6.00 Build 0)  -->
<svg version="1.1" id="Layer_1" xmlns="http://www.w3.org/2000/svg" xmlns:xlink="http://www.w3.org/1999/xlink" x="0px" y="0px"
	 viewBox="0 0 28.79 26.38" style="enable-background:new 0 0 28.79 26.38;" xml:space="preserve">
<style type="text/css">
	.st0{fill:#010326;}
</style>
<path class="st0" d="M22.82,6.3c0.3-0.68,0.61-1.25,0.84-1.73c0.27-0.58,0.54-1.08,0.81-1.52c0.13-0.26,0.11-0.38,0.11-0.52
	c0-0.2-0.17-0.29-0.44-0.29c-0.57,0-1.02,0.2-1.59,0.64c-0.57,0.41-1.15,0.88-1.69,1.46c-0.51,0.58-0.98,1.15-1.38,1.76
	c-0.37,0.58-0.67,1.05-0.84,1.39c-0.17,0.3-0.37,0.58-0.57,0.74C17.9,8.4,17.76,8.49,17.6,8.56c-0.21,0.09-0.4,0.14-0.57,0.14h-2.72
	c-0.17,0-0.29-0.06-0.24-0.2c0.34-0.78,0.67-1.52,0.98-2.2c0.3-0.68,0.61-1.25,0.84-1.73C16.16,4,16.43,3.5,16.7,3.06
	c0.13-0.26,0.11-0.38,0.11-0.52c0-0.2-0.17-0.29-0.44-0.29c-0.57,0-1.02,0.2-1.59,0.64c-0.57,0.41-1.15,0.88-1.69,1.46
	c-0.51,0.58-0.98,1.15-1.38,1.76c-0.37,0.58-0.67,1.05-0.84,1.39C10.7,7.8,10.5,8.08,10.3,8.24C10.11,8.4,9.94,8.5,9.77,8.57
	C9.57,8.67,9.43,8.7,9.26,8.7H8.48c0,0-0.06,0-0.12,0.01c-0.02,0-0.1,0.02-0.13,0.03C8.15,8.77,8.04,8.81,8,8.82
	C7.95,8.85,7.9,8.87,7.85,8.9c-0.1,0.08-0.21,0.16-0.31,0.26C7.46,9.24,7.43,9.38,7.42,9.51c0,0.03,0.01,0.19,0.02,0.23
	c0.01,0.02,0.07,0.13,0.13,0.19c0.02,0.02,0.06,0.05,0.18,0.06c0.03,0,1.62,0,1.62,0c0.1,0,0.17,0.07,0.17,0.17
	c0,0.06-0.03,0.16-0.08,0.29c-0.03,0.08-0.19,0.41-0.23,0.49c-0.07,0.16-0.14,0.31-0.2,0.44c-1.21,2.67-2.08,4.84-2.86,6.56
	c-0.69,1.57-1.27,2.88-1.67,3.92c-0.03,0.08-0.18,0.4-0.22,0.52c-0.06,0.17-0.08,0.36-0.08,0.6c0,0.2,0.07,0.41,0.17,0.61
	s0.3,0.37,0.61,0.44c0.11,0.04,0.69,0.09,0.78,0.09c0.18,0.01,0.37,0.01,0.57,0.01c0.08,0,0.16,0,0.24,0c0.19,0,0.86-0.08,0.98-0.11
	s0.24-0.06,0.36-0.09c0.2-0.06,0.35-0.14,0.49-0.24c0.03-0.02,0.13-0.11,0.15-0.14c0.09-0.12,0.13-0.26,0.13-0.43
	c0-0.1-0.03-0.24-0.07-0.34c-0.03-0.1-0.07-0.2-0.07-0.34s0-0.3,0.03-0.51c0.03-0.2,0.07-0.41,0.1-0.58
	c0.03-0.24,0.17-0.79,0.19-0.85c0.12-0.39,0.27-0.81,0.42-1.25c0.17-0.51,0.44-1.12,0.74-1.9c0.3-0.74,0.74-1.69,1.25-2.84
	c0.51-1.12,1.18-2.57,1.96-4.3c0,0,0.06-0.11,0.08-0.14c0.08-0.12,0.22-0.09,0.32-0.09h1.92c0.02,0,0.04,0,0.05,0l0,0h1.52
	c0.1,0,0.17,0.07,0.17,0.17s-0.07,0.3-0.2,0.54c-0.1,0.24-0.2,0.47-0.3,0.68c-1.21,2.67-2.08,4.84-2.86,6.56
	c-0.69,1.57-1.27,2.88-1.67,3.92c-0.03,0.08-0.18,0.4-0.22,0.52c-0.06,0.17-0.08,0.36-0.08,0.6c0,0.2,0.07,0.41,0.17,0.61
	s0.3,0.37,0.61,0.44c0.11,0.04,0.69,0.09,0.78,0.09c0.18,0.01,0.37,0.01,0.57,0.01c0.08,0,0.16,0,0.24,0c0.19,0,0.86-0.08,0.98-0.11
	c0.12-0.03,0.24-0.06,0.36-0.09c0.2-0.06,0.35-0.14,0.49-0.24c0.03-0.02,0.13-0.11,0.15-0.14c0.09-0.12,0.13-0.26,0.13-0.43
	c0-0.1-0.03-0.24-0.07-0.34c-0.03-0.1-0.07-0.2-0.07-0.34s0-0.3,0.03-0.51c0.03-0.2,0.07-0.41,0.1-0.58
	c0.03-0.24,0.17-0.79,0.19-0.85c0.12-0.39,0.27-0.81,0.42-1.25c0.17-0.51,0.44-1.12,0.74-1.9c0.3-0.74,0.74-1.69,1.25-2.84
	c0.51-1.12,1.18-2.57,1.96-4.3c0,0,0.06-0.11,0.08-0.14c0.08-0.12,0.22-0.09,0.32-0.09h1.92c0.13,0,0.22,0.01,0.45-0.23
	c0.19-0.2,0.37-0.71,0.37-0.71s0.06-0.15,0.02-0.25c-0.03-0.07-0.17-0.1-0.37-0.1h-1.75c-0.17,0-0.29-0.06-0.24-0.2
	C22.18,7.72,22.52,6.98,22.82,6.3z"/>
</svg>
